<svg xmlns="http://www.w3.org/2000/svg" viewBox="0 0 320 280" width="320" height="280" fill="none">
  <defs>
    <linearGradient id="vMarkGrad" x1="10" y1="10" x2="130" y2="130" gradientUnits="userSpaceOnUse">
      <stop offset="0%" stop-color="#16803A" />
      <stop offset="100%" stop-color="#0B5D2A" />
    </linearGradient>
    <linearGradient id="vAccentGrad" x1="0%" y1="0%" x2="100%" y2="100%">
      <stop offset="0%" stop-color="#2D9C52" />
      <stop offset="100%" stop-color="#16803A" />
    </linearGradient>
  </defs>

  <!-- Mark (Top Center) -->
  <g transform="translate(70, 0) scale(0.90)">
    <circle cx="100" cy="100" r="88" fill="#EAF7EE" opacity="0.6"/>
    <path d="M 38 135 C 38 135 60 122 92 125 L 92 65 C 60 62 38 75 38 75 Z" fill="none" stroke="url(#vMarkGrad)" stroke-width="8" stroke-linecap="round" stroke-linejoin="round" />
    <path d="M 162 135 C 162 135 140 122 108 125 L 108 65 C 140 62 162 75 162 75 Z" fill="none" stroke="url(#vMarkGrad)" stroke-width="8" stroke-linecap="round" stroke-linejoin="round" />
    <path d="M 92 125 C 97 128 103 128 108 125 L 108 142 C 103 145 97 145 92 142 Z" fill="url(#vMarkGrad)" />
    <path d="M 100 125 L 100 52 C 100 52 118 42 138 52 C 124 58 114 62 114 74 L 114 98" fill="none" stroke="url(#vAccentGrad)" stroke-width="8" stroke-linecap="round" stroke-linejoin="round" />
    <ellipse cx="88" cy="102" rx="14" ry="10" transform="rotate(-20 88 102)" fill="url(#vAccentGrad)" />
    <path d="M 100 24 L 100 32" stroke="#2D9C52" stroke-width="4" stroke-linecap="round" />
    <path d="M 76 32 L 82 38" stroke="#2D9C52" stroke-width="3.5" stroke-linecap="round" />
    <path d="M 124 32 L 118 38" stroke="#2D9C52" stroke-width="3.5" stroke-linecap="round" />
  </g>

  <!-- Typography (Bottom Center) -->
  <text x="160" y="210" text-anchor="middle" font-family="Roboto, 'Segoe UI', sans-serif" font-weight="700" font-size="24" fill="#17201A" letter-spacing="1">CANTIQUES DU MESSAGE</text>
  <text x="160" y="235" text-anchor="middle" font-family="Roboto, 'Segoe UI', sans-serif" font-weight="400" font-size="14" fill="#5A685D" letter-spacing="2">RECUEIL &amp; ADORATION</text>
</svg>
